<svg xmlns="http://www.w3.org/2000/svg" width="32" height="32" viewBox="0 0 32 32">
  <path d="M16,1.01627452 L16,4.17245615 C18.0437504,4.17245615 20.0187504,4.13547043 21.2,4.3697175 C21.7875008,4.48684182 22.1312496,4.6594455 22.25,4.7642402 C22.3687504,4.8690349 22.4,4.85670686 22.4,5.25739358 C22.4,5.34369621 22.4187504,5.3745179 22.3,5.50397027 C22.1812496,5.63342264 21.9,5.84917764 21.6,5.99712365 C20.9937504,6.29301568 20.35,6.39164636 20.35,6.39164636 L18.75,6.73685372 L19.1,8.31494454 L19.45,9.79440467 C15.5312496,10.2998877 12.4125008,12.3772959 10.2,14.4300464 L8.85,12.9505863 C9.0812496,12.8766133 9.4437504,12.753325 9.6,12.7040096 C10.8812496,12.2293499 11.2,11.9026362 11.2,10.4848194 L1.6,10.4848194 C1.6,13.3266154 3.2,13.9368931 4.8,13.9368931 C4.9687504,13.9368931 5.225,13.8752497 5.45,13.8382624 L8,16.7971827 C7.3375008,17.6170498 7.0625008,18.0177381 6.8,18.4245888 C6.6687504,18.4184248 6.5375008,18.3752735 6.4,18.3752735 C2.8812496,18.3752735 0,21.2170694 0,24.6876367 C0,28.158204 2.8812496,31 6.4,31 C9.9187504,31 12.8,28.158204 12.8,24.6876367 C12.8,22.5177619 11.65,20.5944637 9.95,19.4602109 C11.55,17.4012963 15.2,13.5238767 20.1,12.9505863 L20.75,15.8601912 C17.925,17.068417 16,19.83624 16,23.1095459 C16,27.5294327 19.5187504,31 24,31 C28.4812496,31 32,27.5294327 32,23.1095459 C32,18.6896592 28.4812496,15.2190919 24,15.2190919 C23.9687504,15.2190919 23.9312496,15.2190919 23.9,15.2190919 L22.5,9.00535927 C22.7562496,8.91289261 22.7625008,8.94987991 23.05,8.80809792 C23.5875008,8.54302758 24.1375008,8.18549217 24.65,7.6245298 C25.1625008,7.06356744 25.6,6.194385 25.6,5.25739358 C25.6,4.1601281 25.1562496,3.124506 24.4,2.44641932 C23.6437504,1.76833421 22.7125008,1.44161891 21.8,1.26285121 C19.9812496,0.905315796 17.9562496,1.01627452 16,1.01627452 Z M24.6,18.4245888 C27.0187504,18.7019872 28.8,20.6252854 28.8,23.1095459 C28.8,25.7910678 26.7187504,27.8438184 24,27.8438184 C21.2812496,27.8438184 19.2,25.7910678 19.2,23.1095459 C19.2,21.3526874 20.1187504,19.8793913 21.5,19.0656882 L22.4,23.1095459 L22.45,23.4547533 L22.5,23.4547533 C22.6687504,24.145168 23.2437504,24.6876367 24,24.6876367 C24.8812496,24.6876367 25.6,23.9787284 25.6,23.1095459 C25.6,22.9800936 25.5312496,22.8814629 25.5,22.7643386 L25.55,22.7643386 L24.6,18.4245888 Z M6.4,21.5314551 C6.6187504,21.5314551 6.8437504,21.5376191 7.05,21.5807704 C7.0687504,21.5992641 7.0812496,21.6115921 7.1,21.6300858 C7.1437504,21.6424154 7.2062496,21.6177577 7.25,21.6300858 C7.3,21.6485794 7.35,21.6670731 7.4,21.6794011 C8.675,22.0924175 9.6,23.2944792 9.6,24.6876367 C9.6,26.4260032 8.1625008,27.8438184 6.4,27.8438184 C4.6375008,27.8438184 3.2,26.4260032 3.2,24.6876367 C3.2,22.9492719 4.6375008,21.5314551 6.4,21.5314551 Z"/>
</svg>
