<svg xmlns="http://www.w3.org/2000/svg" width="32" height="32" viewBox="0 0 32 32">
  <path d="M16.5,0 C12.3447266,0 8.85766638,2.97727273 8.0546875,6.95454545 L10.8847656,7.54545455 C11.4182132,4.897728 13.7092289,2.90909091 16.5,2.90909091 C19.6894531,2.90909091 22.25,5.5 22.25,8.72727273 L22.25,10.3181818 C20.5541999,9.32386327 18.6000984,8.72727273 16.5,8.72727273 C10.1491696,8.72727273 5,13.9374996 5,20.3636364 C5,26.7897731 10.1491696,32 16.5,32 C22.8508304,32 28,26.7897731 28,20.3636364 C28,17.4147724 26.9106452,14.7329542 25.125,12.6818182 L25.125,8.72727273 C25.125,3.92613673 21.2448727,0 16.5,0 Z M16.5,11.6363636 C21.2561039,11.6363636 25.125,15.551136 25.125,20.3636364 C25.125,25.1761367 21.2561039,29.0909091 16.5,29.0909091 C11.7438961,29.0909091 7.875,25.1761367 7.875,20.3636364 C7.875,15.551136 11.7438961,11.6363636 16.5,11.6363636 Z M16.5,17.4545455 C14.9108883,17.4545455 13.625,18.7556815 13.625,20.3636364 C13.625,21.9715913 14.9108883,23.2727273 16.5,23.2727273 C18.0891117,23.2727273 19.375,21.9715913 19.375,20.3636364 C19.375,18.7556815 18.0891117,17.4545455 16.5,17.4545455 Z"/>
</svg>
